<svg width="27" height="27" viewBox="0 0 27 27" fill="none" xmlns="http://www.w3.org/2000/svg">
    <g clip-path="url(#clip0_4_456)">
        <path
            d="M13.5 0C11.7272 0 9.97167 0.349188 8.33377 1.02763C6.69588 1.70606 5.20765 2.70047 3.95406 3.95406C1.42232 6.4858 0 9.91958 0 13.5C0 19.467 3.8745 24.5295 9.234 26.325C9.909 26.433 10.125 26.0145 10.125 25.65V23.3685C6.3855 24.1785 5.589 21.5595 5.589 21.5595C4.968 19.9935 4.0905 19.575 4.0905 19.575C2.862 18.738 4.185 18.765 4.185 18.765C5.535 18.8595 6.2505 20.1555 6.2505 20.1555C7.425 22.2075 9.4095 21.6 10.179 21.276C10.3005 20.3985 10.6515 19.8045 11.0295 19.467C8.0325 19.1295 4.887 17.9685 4.887 12.825C4.887 11.3265 5.4 10.125 6.2775 9.1665C6.1425 8.829 5.67 7.425 6.4125 5.6025C6.4125 5.6025 7.5465 5.238 10.125 6.9795C11.1915 6.6825 12.3525 6.534 13.5 6.534C14.6475 6.534 15.8085 6.6825 16.875 6.9795C19.4535 5.238 20.5875 5.6025 20.5875 5.6025C21.33 7.425 20.8575 8.829 20.7225 9.1665C21.6 10.125 22.113 11.3265 22.113 12.825C22.113 17.982 18.954 19.116 15.9435 19.4535C16.4295 19.872 16.875 20.6955 16.875 21.951V25.65C16.875 26.0145 17.091 26.4465 17.7795 26.325C23.139 24.516 27 19.467 27 13.5C27 11.7272 26.6508 9.97167 25.9724 8.33377C25.2939 6.69588 24.2995 5.20765 23.0459 3.95406C21.7924 2.70047 20.3041 1.70606 18.6662 1.02763C17.0283 0.349188 15.2728 0 13.5 0Z"
            fill="white" />
    </g>
    <defs>
        <clipPath id="clip0_4_456">
            <rect width="27" height="27" fill="white" />
        </clipPath>
    </defs>
</svg>