<svg width="27" height="27" viewBox="0 0 27 27" fill="none" xmlns="http://www.w3.org/2000/svg">
    <path opacity="0.3"
        d="M24.0652 8.78947L13.5 15.3026L2.93481 8.78947V21.8158H24.0652V8.78947ZM24.0652 6.1842H2.93481L13.5 12.6843L24.0652 6.1842Z"
    />
    <path
        d="M2.93476 24.421H24.0652C25.5179 24.421 26.7065 23.2487 26.7065 21.8158V6.18418C26.7065 4.75129 25.5179 3.57892 24.0652 3.57892H2.93476C1.48204 3.57892 0.293457 4.75129 0.293457 6.18418V21.8158C0.293457 23.2487 1.48204 24.421 2.93476 24.421ZM24.0652 6.18418L13.5 12.6843L2.93476 6.18418H24.0652ZM2.93476 8.78944L13.5 15.3026L24.0652 8.78944V21.8158H2.93476V8.78944Z"
        fill="white" />
</svg>
    